<?xml version="1.0" encoding="utf-8"?>
<!-- Generator: Adobe Illustrator 24.0.1, SVG Export Plug-In . SVG Version: 6.00 Build 0)  -->
<svg version="1.1"
	 id="svg4202" inkscape:version="0.91 r13725" sodipodi:docname="atombuild.svg" xmlns:cc="http://creativecommons.org/ns#" xmlns:dc="http://purl.org/dc/elements/1.1/" xmlns:inkscape="http://www.inkscape.org/namespaces/inkscape" xmlns:osb="http://www.openswatchbook.org/uri/2009/osb" xmlns:rdf="http://www.w3.org/1999/02/22-rdf-syntax-ns#" xmlns:sodipodi="http://sodipodi.sourceforge.net/DTD/sodipodi-0.dtd" xmlns:svg="http://www.w3.org/2000/svg"
	 xmlns="http://www.w3.org/2000/svg" xmlns:xlink="http://www.w3.org/1999/xlink" x="0px" y="0px" viewBox="0 0 64 64"
	 style="enable-background:new 0 0 64 64;" xml:space="preserve">
<style type="text/css">
	.st0{opacity:0.62;fill:#FFB238;enable-background:new    ;}
	.st1{fill:#663399;fill-opacity:0.9412;}
	.st2{fill:#452475;fill-opacity:0.4313;}
	.st3{fill:#006AC1;}
	.st4{fill:#004CA3;fill-opacity:0.9412;}
	.st5{fill:#004CA3;}
	.st6{fill:#36313D;}
</style>
<sodipodi:namedview  bordercolor="#666666" borderopacity="1" gridtolerance="10" guidetolerance="10" id="namedview4224" inkscape:current-layer="svg4202" inkscape:cx="32.287555" inkscape:cy="28.723039" inkscape:pageopacity="0" inkscape:pageshadow="2" inkscape:window-height="826" inkscape:window-maximized="0" inkscape:window-width="1440" inkscape:window-x="0" inkscape:window-y="0" inkscape:zoom="7.146303" objecttolerance="10" pagecolor="#ffffff" showgrid="false">
	</sodipodi:namedview>
<g id="g4204">
	<path id="path4206" class="st0" d="M39.1,49c6.4-6.4,5.9-17.4-1.3-24.6c-7.1-7.1-18.1-7.7-24.6-1.3C6.8,29.6-3.3,51.3,3.9,58.4
		C11,65.6,32.7,55.5,39.1,49"/>
	<path id="path4208" class="st0" d="M41,42.5c5.4-5.3,4.9-14.5-1.1-20.4C34,16.1,24.8,15.6,19.5,21c-5.3,5.3-13.7,23.3-7.8,29.3
		C17.6,56.2,35.6,47.8,41,42.5"/>
</g>
<path id="path4210" class="st1" d="M27.8,36c6.1,6.1,11,12.5,14.5,18.6c0.5-3.1,2.6-7.9,8.8-18.1C63.5,16.4,64.8,2,63.4,0.7
	c0,0-0.1-0.1-0.1-0.1c0,0-0.1-0.1-0.1-0.1c-1.3-1.4-15.7-0.1-35.9,12.3c-10.1,6.2-15,8.3-18.1,8.8C15.3,25,21.7,30,27.8,36"/>
<path id="path4212" class="st2" d="M59.4,0.1C53.7,0.6,42,3.7,27.3,12.7c-10.1,6.2-15,8.3-18.1,8.8C15.3,25,21.7,30,27.8,36
	c0.3,0.3,0.5,0.5,0.8,0.8C26.7,19.7,45.5,8.4,59.4,0.1"/>
<path id="path4214" class="st3" d="M33.6,52.6c3.1,3.1,5.6,6.4,7.4,9.5c0.2-1.6,1.3-4,4.5-9.2c6.3-10.3,7-17.7,6.3-18.4
	c0,0,0,0-0.1-0.1s0,0-0.1-0.1c-0.7-0.7-8,0-18.4,6.3c-5.2,3.2-7.7,4.2-9.2,4.5C27.2,47,30.5,49.5,33.6,52.6"/>
<path id="path4216" class="st4" d="M41.7,44.1c-2.7,3.3-4.7,7.5-5.2,11.7c1.8,2.1,3.3,4.3,4.5,6.3c0.2-1.6,1.3-4,4.5-9.2
	c5.1-8.4,6.5-14.8,6.5-17.3C48.6,38.5,44.5,40.6,41.7,44.1"/>
<path id="path4218" class="st3" d="M9.5,28.5c3.1,3.1,5.6,6.4,7.4,9.5c0.2-1.6,1.3-4,4.5-9.2c6.3-10.3,7-17.7,6.3-18.4
	c0,0,0,0-0.1-0.1c0,0,0,0-0.1-0.1c-0.7-0.7-8.1,0-18.4,6.3C4,19.7,1.6,20.8,0,21C3.1,22.8,6.4,25.3,9.5,28.5"/>
<path id="path4220" class="st5" d="M12.8,21.4c5.6-2.7,11.4-5.7,14.9-11c0,0,0-0.1,0-0.1c0,0-0.1-0.1-0.1-0.1c0,0,0,0-0.1-0.1
	c-0.7-0.7-8.1,0-18.4,6.3C4.1,19.7,1.6,20.8,0,21c2.1,1.2,4.3,2.8,6.4,4.6C8.3,24,10.5,22.6,12.8,21.4"/>
<path id="path4222" class="st6" d="M53,11.1c1.7,1.5,3.1,3.1,4.2,4.6c0.1-0.8,0.5-2.1,2-4.9c2.9-5.5,2.9-9.3,2.5-9.7c0,0,0,0,0,0
	c0,0,0,0,0,0c-0.4-0.3-4.1,0.3-9.2,3.9c-2.5,1.8-3.8,2.5-4.6,2.7C49.5,8.4,51.3,9.6,53,11.1"/>
</svg>
